<?xml version="1.0" encoding="utf-8"?><svg xmlns="http://www.w3.org/2000/svg" xmlns:xlink="http://www.w3.org/1999/xlink"><defs><svg viewBox="0 0 32 32" id="arrow" xmlns="http://www.w3.org/2000/svg"><path d="M20.023 4.022L32 16 20.023 27.978l-2.504-2.504 7.689-7.689-25.209.001v-3.575h25.207l-7.688-7.686 2.504-2.504z"/></svg><svg viewBox="0 0 20 32" id="chevron" xmlns="http://www.w3.org/2000/svg"><path d="M20 16L4 0 0 4l12 12L0 28l4 4 16-16z"/></svg><svg viewBox="0 0 32 32" id="close" xmlns="http://www.w3.org/2000/svg"><path d="M28.235 0L32 3.765 19.764 16 32 28.235 28.235 32 16 19.764 3.765 32 0 28.235 12.235 16 0 3.765 3.765 0 16 12.236 28.235 0z"/></svg><svg version="1.1" id="dpc-logo" x="0" y="0" viewBox="0 0 56 60" xml:space="preserve" xmlns="http://www.w3.org/2000/svg"><style>.dst0{fill:#002664}.dst1{fill:#fff}.dst2{fill:#d7153a}</style><path class="dst0" d="M15.1 46.6L6.4 36.2H2.7v16.2h3.6V42.1L15 52.4h3.7V36.2h-3.6v10.4zm34.4-10.4l-2.3 10.4-2.5-10.4h-3.4l-2.5 10.3-2.3-10.3h-3.7l4.1 16.2h3.7L43 42.1l2.5 10.3H49v-.1l4.2-16.1h-3.7zM2.4 57.4c0-1.4 1.1-2.6 2.5-2.6H5c.7 0 1.4.2 1.9.7l-.6.6c-.4-.4-.9-.5-1.4-.5-.9 0-1.6.8-1.6 1.8-.1.9.6 1.7 1.5 1.8H5c.4 0 .8-.1 1.2-.4v-.9H4.9v-.7H7v2c-.5.5-1.2.8-2 .8-1.4.1-2.5-1-2.6-2.4.1-.1 0-.1 0-.2M7.5 57.4c0-1.4 1.1-2.6 2.5-2.6h.1c1.4 0 2.5 1.1 2.6 2.5v.1c0 1.4-1.1 2.6-2.5 2.6h-.1c-1.4 0-2.5-1.1-2.6-2.6 0 .1 0 .1 0 0m4.3 0c0-1-.7-1.8-1.6-1.8h-.1c-.9 0-1.7.8-1.7 1.7v.1c0 1 .7 1.8 1.6 1.8h.1c.9 0 1.7-.8 1.7-1.8 0 .1 0 0 0 0M12.6 54.9h1l1.5 3.9 1.4-3.9h1L15.4 60h-.7zM18.1 54.9h3.6v.8h-2.8V57h2.5v.8h-2.5v1.3h2.9v.8h-3.7zM22.6 54.9h2.2c.5 0 1 .2 1.4.5.3.3.4.7.4 1.1 0 .7-.5 1.4-1.2 1.5l1.3 1.9h-1l-1.2-1.7h-1.1V60h-.9l.1-5.1zm2.2 2.5c.6 0 1-.3 1-.8s-.4-.8-1-.8h-1.3v1.7l1.3-.1zM27.4 54.9h.8l2.7 3.5v-3.5h.8v5H31l-2.7-3.6v3.6h-.9zM32.6 54.9h.9l1.5 2.4 1.5-2.4h1v5h-.9v-3.6L35 58.7l-1.5-2.4v3.6h-.9zM38.3 54.9H42v.8h-2.8V57h2.4v.8h-2.4v1.3H42v.8h-3.7zM42.8 54.9h.9l2.6 3.5v-3.5h.9v5h-.8l-2.7-3.6v3.6h-.9zM49.4 55.7h-1.6v-.8h4.1v.8h-1.6v4.2h-.9zM19.7 50.2l2.1-2.6c1.3 1.3 3 2 4.8 2 1.5 0 2.3-.6 2.3-1.6v-.1c0-.9-.6-1.4-3.3-2-3.3-.8-5.4-1.8-5.4-5v-.2c0-3 2.4-5 5.7-5 2.2 0 4.3.7 6 2.1l-1.8 2.7c-1.2-1-2.7-1.5-4.2-1.6-1.4 0-2.1.6-2.1 1.4v.1c0 1.1.7 1.4 3.5 2.2 3.3.9 5.1 2 5.1 4.9 0 3.3-2.5 5.1-6 5.1-2.4.2-4.8-.7-6.7-2.4z"/><path class="dst1" d="M56 24.9c-.1-.6-.4-1.2-.9-1.5-1.5-1.1-3.1-2.2-4.7-3.1.2-.3.3-.4.5-.7 1.1-1.4 1.9-3 2.4-4.7.2-.6.2-1.2.1-1.9-.2-.6-.7-1-1.3-1.1-2-.2-4-.2-5.9 0 0-1.9-.1-3.8-.5-5.7-.1-.5-.3-1.3-.9-1.5-1-.2-2-.1-2.8.5-1.1.5-2 .9-3.2 1.6-.6-2-1.1-3.9-1.3-4.3-.2-.5-.4-1-1-1.1-.5-.1-1 0-1.4.3-.6.4-3.1 2.2-3.9 2.9-.6-.9-.9-1.6-1.5-2.4-.3-.6-.7-1.1-1.1-1.7-.3-.4-1-.5-1.4-.2-.1 0-.1.1-.2.2-.4.5-.8 1.1-1.1 1.7-.5.9-.9 1.5-1.4 2.5-.8-.7-3.3-2.5-3.9-2.9-.4-.3-.9-.4-1.4-.3-.7.1-.9.8-1 1.1s-.6 2.2-1.2 4.2l-3.2-1.6c-.8-.6-1.8-.8-2.8-.6-.5.2-.7 1-.9 1.5-.3 1.9-.5 3.8-.4 5.7-2-.2-4-.2-5.9 0-.6.2-1 .6-1.2 1.1-.1.6-.1 1.3.1 1.9.5 1.7 1.3 3.3 2.3 4.7.2.3.3.5.5.7-1.6.9-3.2 1.9-4.7 3.1-.5.4-.8.9-.9 1.5 0 .4.1.7.3 1 .5.8 3.6 3.7 10.3 4.8-.8.5-1.1 1.5-.8 2.3.2.5.7.9 1.2 1.1 1.1.5 2.3.8 3.5.8 1.6 0 3.3-.2 4.8-.6 1.5-.5 3-.8 4.6-1 .9-.1 1.8-.1 2.7 0 .3 0 .7.1 1.4.1s1.1 0 1.4-.1c.9-.1 1.8-.1 2.7 0 1.5.2 3.1.6 4.6 1 1.6.4 3.2.6 4.8.6 1.2 0 2.4-.2 3.5-.7.5-.2.9-.6 1.1-1.1.4-.9 0-1.9-.8-2.4 6.7-1 9.8-4 10.3-4.8.4-.2.5-.6.5-.9z"/><path class="dst2" d="M38.3 10.2c.5 2.7.8 5.5.8 8.3 0 2.5-.3 5.1-1 7.5-.6 1.8-1.7 3.5-3.2 4.6 2.9-.1 5.5-1.9 7.3-5.2 2.4-4.2 2.9-9.6 3-13.5.1-4.4-.2-5.5-.4-5.9-.1-.4-.3-.6-.7-.6-.7 0-3.8 1.4-6.7 3.5.5.4.8.8.9 1.3z"/><path class="dst2" d="M30.4 31.2c3.1-.3 5.7-2.5 6.6-5.5.7-2.3 1-4.7 1-7.1 0-2.6-.2-5.2-.7-7.7 0-.3-.2-.7-.5-.8s-.6.3-.9.5-5.3 4.7-7.4 10.2c-.8 1.8-1.2 3.8-1.2 5.9-.1 1.2.1 2.4.7 3.5.6.6 1.5 1 2.4 1zM38 7.2c-.6-2.6-1.1-4.4-1.1-4.5-.1-.3-.3-.6-.5-.6-.3 0-.5 0-.7.2-.4.3-2.9 2.3-3.7 3 .8 1.6 1.5 3.4 2.1 5.1 1.2-1.2 2.6-2.2 3.9-3.2zM52.6 13.8c0-.3 0-.6-.1-.8-.2-.2-.4-.3-.9-.4-1.8 0-3.5.1-5.3.3 0 1.7-.2 3.5-.4 5.2 1.2.5 2.5 1 3.6 1.6 2.5-3.2 3-5.3 3.1-5.9zM54.9 24.9c0-.4-.2-.8-.9-1.2-2.6-1.8-5.4-3.3-8.3-4.5-.4 2.4-1.2 4.7-2.4 6.8-1 1.8-2.4 3.4-4.1 4.5 4.9-.3 9-1.1 11.9-2.6 3.3-1.6 3.8-2.4 3.8-3zM44.1 31.3c-.9.1-1.9.2-2.8.4-1 .2-1.9.2-2.9.2h-3.9c-1.7 0-3.4.1-5 .5-.1 0-.2 0-.2.2s.1.1.3.1 1.3-.1 1.9-.1c1.7 0 3.4.3 5 .7 1.4.4 2.9.7 4.4.7 1.8 0 3.5-.2 4-.9.3-.3.4-.7.3-1 0-.6-.4-.8-1.1-.8zM13.7 25.4c1.8 3.2 4.4 5.1 7.3 5.2-1.5-1.2-2.6-2.8-3.2-4.6-.7-2.4-1-5-1-7.5 0-2.8.3-5.5.8-8.3.1-.5.4-1 .8-1.2-2.9-2.2-6-3.5-6.7-3.5-.4 0-.6.2-.7.6 0 .4-.4 1.5-.3 5.9.1 3.8.6 9.2 3 13.4z"/><path class="dst2" d="M20 10.5c-.2-.2-.5-.5-.8-.5s-.5.5-.5.8c-.5 2.5-.7 5.1-.7 7.7 0 2.4.3 4.8.9 7.1.9 3.1 3.6 5.2 6.7 5.5.4 0 .8-.1 1.2-.2.2-.1.4-.2.5-.3-.2-.2-.3-.5-.4-.7-.4-1-.6-2.1-.6-3.2 0-2.2.4-4.3 1.2-6.3-2.2-5.4-7.3-9.8-7.5-9.9zM28 18.8c1.3-2.7 3.1-5.1 5.2-7.2C32 8 30.4 4.5 28.4 1.2c-.1-.2-.2-.3-.4-.3s-.3.1-.4.3c-2 3.2-3.6 6.7-4.8 10.4 2.1 2.1 3.9 4.6 5.2 7.2zM24 5.3c-.8-.7-3.3-2.7-3.7-3-.2-.2-.5-.3-.7-.2-.3 0-.4.3-.5.6 0 0-.5 1.8-1.1 4.5 1.4 1 2.7 2.1 4 3.3.5-1.8 1.2-3.5 2-5.2zM6.5 19.6c1.2-.6 2.4-1.1 3.7-1.6-.3-1.7-.4-3.4-.5-5.2-1.7-.2-3.5-.3-5.3-.3-.5.1-.7.2-.9.4-.1.3-.2.5-.1.8.1.7.6 2.8 3.1 5.9zM12.7 26c-1.1-2.1-1.9-4.4-2.4-6.8-2.9 1.2-5.7 2.7-8.3 4.5-.7.5-.9.8-.9 1.2 0 .4.4 1.4 3.8 3.1 2.9 1.4 7 2.2 11.9 2.6-1.7-1.2-3.1-2.8-4.1-4.6zM26.5 32.3c-1.6-.4-3.3-.6-5-.5h-3.9c-1 0-1.9 0-2.9-.2-.9-.2-1.8-.3-2.8-.4-.7 0-1.1.2-1.2.7-.1.4 0 .7.3 1 .6.7 2.2.9 4.1.9 1.5 0 2.9-.2 4.4-.7 1.6-.5 3.3-.7 5-.7.6 0 1.8.1 1.9.1s.3 0 .3-.1c-.1 0-.1 0-.2-.1z"/></svg><svg viewBox="0 0 40 32" id="email" xmlns="http://www.w3.org/2000/svg"><path d="M36 0H4C1.8 0 .02 1.8.02 4L0 28c0 2.2 1.8 4 4 4h32c2.2 0 4-1.8 4-4V4c0-2.2-1.8-4-4-4zm0 8L20 18 4 8V4l16 10L36 4v4z"/></svg><svg viewBox="0 0 32 32" id="facebook" xmlns="http://www.w3.org/2000/svg"><path fill="#1578f2" d="M32 16.098C32 7.207 24.837 0 16 0S0 7.207 0 16.098C0 24.133 5.851 30.793 13.5 32V20.751H9.437v-4.653H13.5v-3.547c0-4.035 2.389-6.263 6.043-6.263 1.751 0 3.582.314 3.582.314v3.962h-2.018c-1.988 0-2.607 1.241-2.607 2.514v3.02h4.438l-.709 4.653h-3.728V32c7.649-1.208 13.5-7.867 13.5-15.902z"/></svg><svg viewBox="0 0 32 32" id="linkedin" xmlns="http://www.w3.org/2000/svg"><path fill="#0966c2" d="M27.263 27.269h-4.739v-7.425c0-1.771-.036-4.049-2.469-4.049-2.471 0-2.848 1.927-2.848 3.919v7.556h-4.739V12.001h4.552v2.081h.061c.636-1.2 2.183-2.467 4.493-2.467 4.801 0 5.689 3.16 5.689 7.273v8.381h-.001zM7.116 9.911a2.75 2.75 0 01-2.751-2.753 2.752 2.752 0 112.751 2.753zm2.376 17.358H4.74V12h4.752v15.269zM29.633 0H2.361C1.056 0 0 1.032 0 2.305v27.389c0 1.275 1.056 2.305 2.361 2.305h27.268c1.304 0 2.371-1.031 2.371-2.305V2.305C32 1.032 30.933 0 29.629 0h.004z"/></svg><svg viewBox="0 0 32 32" id="menu" xmlns="http://www.w3.org/2000/svg"><path d="M0 26.667h32v-3.556H0v3.556zm0-8.889h32v-3.556H0v3.556zM0 5.333v3.556h32V5.333H0z"/></svg><svg viewBox="0 0 32 32" id="search" xmlns="http://www.w3.org/2000/svg"><path d="M21.001 23.304a12.927 12.927 0 01-7.985 2.737C5.828 26.041 0 20.213 0 13.025S5.828.009 13.016.009s13.016 5.828 13.016 13.016c0 3.023-1.03 5.804-2.758 8.013l.022-.029L32 29.68l-2.311 2.311-8.671-8.688-.017.001zm-7.972-.521c5.392 0 9.762-4.37 9.762-9.762s-4.37-9.762-9.762-9.762-9.762 4.37-9.762 9.762 4.37 9.762 9.762 9.762z"/></svg><svg viewBox="0 0 32 32" id="status-error" xmlns="http://www.w3.org/2000/svg"><path d="M16 0C7.2 0 0 7.2 0 16s7.2 16 16 16 16-7.2 16-16S24.8 0 16 0zm7.837 21.6l-2.238 2.238-5.6-5.6-5.6 5.6L8.161 21.6l5.6-5.6-5.6-5.6 2.238-2.237 5.6 5.6 5.6-5.6 2.238 2.238-5.6 5.6 5.6 5.6z"/></svg><svg viewBox="0 0 32 32" id="status-info" xmlns="http://www.w3.org/2000/svg"><path d="M16 32A16.003 16.003 0 0027.314 4.686a16.003 16.003 0 00-22.628 0 16.003 16.003 0 000 22.628C7.687 30.314 11.756 32 16 32zm0-25a2 2 0 110 4.001A2 2 0 0116 7zm-2 7h4v11h-4V14z"/></svg><svg viewBox="0 0 32 32" id="status-success" xmlns="http://www.w3.org/2000/svg"><path d="M16 0c8.837 0 16 7.163 16 16s-7.163 16-16 16S0 24.837 0 16 7.163 0 16 0zm6.184 9.6l-8.53 8.528-3.942-3.607-2.245 2.452 6.289 5.754 10.778-10.778-2.35-2.35z"/></svg><svg viewBox="0 0 32 32" id="status-warning" xmlns="http://www.w3.org/2000/svg"><path d="M16 0A16.003 16.003 0 004.686 27.314a16.003 16.003 0 0022.628 0 16.003 16.003 0 000-22.628C24.313 1.686 20.244 0 16 0zm0 25a2 2 0 110-4.001A2 2 0 0116 25zm2-7h-4V7h4v11z"/></svg><svg viewBox="0 0 32 32" id="tick" xmlns="http://www.w3.org/2000/svg"><path d="M29.362 3.742L10.495 22.946l-7.857-7.997L0 17.634l9.175 9.34 1.319 1.284 1.318-1.284L31.999 6.427z"/></svg><svg viewBox="0 0 37 32" id="twitter" xmlns="http://www.w3.org/2000/svg"><path fill="#059ff5" d="M33.474 8c.049.205.073.538.073 1 0 3.692-.851 7.256-2.552 10.692-1.75 3.641-4.205 6.538-7.365 8.692-3.451 2.41-7.413 3.615-11.885 3.615-4.278 0-8.191-1.205-11.74-3.615.535.051 1.142.077 1.823.077 3.549 0 6.733-1.154 9.552-3.462-1.701 0-3.196-.526-4.484-1.577S4.721 21.05 4.235 19.46c.486.051.948.077 1.385.077.681 0 1.361-.077 2.042-.231-1.75-.41-3.208-1.359-4.375-2.846s-1.75-3.18-1.75-5.077v-.154a6.93 6.93 0 003.427 1.077c-1.021-.769-1.847-1.744-2.479-2.923s-.948-2.474-.948-3.885c0-1.41.365-2.756 1.094-4.038 1.896 2.513 4.217 4.513 6.964 6s5.675 2.308 8.786 2.462a11.838 11.838 0 01-.146-1.846c0-1.436.34-2.782 1.021-4.038s1.604-2.244 2.771-2.962a7.104 7.104 0 013.792-1.077c1.118 0 2.151.231 3.099.692s1.786 1.077 2.516 1.846c1.75-.359 3.378-1 4.885-1.923-.583 1.897-1.701 3.385-3.354 4.462 1.458-.205 2.917-.641 4.375-1.308a17.376 17.376 0 01-3.865 4.231z"/></svg></defs></svg>