<?xml version="1.0" encoding="utf-8"?>
<!-- Generator: Adobe Illustrator 24.0.3, SVG Export Plug-In . SVG Version: 6.00 Build 0)  -->
<svg version="1.1" id="Layer_1" xmlns="http://www.w3.org/2000/svg" xmlns:xlink="http://www.w3.org/1999/xlink" x="0px" y="0px"
	 viewBox="0 0 56 60" style="enable-background:new 0 0 56 60;" xml:space="preserve">
<style type="text/css">
	.st0{fill:#002664;}
	.st1{fill:#FFFFFF;}
	.st2{fill:#D7153A;}
</style>
<title>NSW Department of Premier and Cabinet logo</title>
<g>
	<path class="st0" d="M15.1,46.6L6.4,36.2H2.7v16.2h3.6V42.1L15,52.4h3.7V36.2h-3.6V46.6z M49.5,36.2l-2.3,10.4l-2.5-10.4h-3.4
		l-2.5,10.3l-2.3-10.3h-3.7l4.1,16.2h3.7l2.4-10.3l2.5,10.3H49v-0.1l4.2-16.1H49.5z"/>
	<path class="st0" d="M2.4,57.4L2.4,57.4c0-1.4,1.1-2.6,2.5-2.6c0,0,0,0,0.1,0c0.7,0,1.4,0.2,1.9,0.7l-0.6,0.6
		c-0.4-0.4-0.9-0.5-1.4-0.5c-0.9,0-1.6,0.8-1.6,1.8c0,0,0,0,0,0l0,0c-0.1,0.9,0.6,1.7,1.5,1.8c0.1,0,0.1,0,0.2,0
		c0.4,0,0.8-0.1,1.2-0.4v-0.9H4.9v-0.7H7v2C6.5,59.7,5.8,60,5,60c-1.4,0.1-2.5-1-2.6-2.4C2.5,57.5,2.4,57.5,2.4,57.4"/>
	<path class="st0" d="M7.5,57.4L7.5,57.4c0-1.4,1.1-2.6,2.5-2.6c0,0,0.1,0,0.1,0c1.4,0,2.5,1.1,2.6,2.5c0,0,0,0.1,0,0.1l0,0
		c0,1.4-1.1,2.6-2.5,2.6c0,0-0.1,0-0.1,0C8.7,60,7.6,58.9,7.5,57.4C7.5,57.5,7.5,57.5,7.5,57.4 M11.8,57.4L11.8,57.4
		c0-1-0.7-1.8-1.6-1.8c0,0,0,0-0.1,0c-0.9,0-1.7,0.8-1.7,1.7c0,0,0,0.1,0,0.1l0,0c0,1,0.7,1.8,1.6,1.8c0,0,0,0,0.1,0
		C11,59.2,11.8,58.4,11.8,57.4C11.8,57.5,11.8,57.4,11.8,57.4"/>
	<polygon class="st0" points="12.6,54.9 13.6,54.9 15.1,58.8 16.5,54.9 17.5,54.9 15.4,60 14.7,60 	"/>
	<polygon class="st0" points="18.1,54.9 21.7,54.9 21.7,55.7 18.9,55.7 18.9,57 21.4,57 21.4,57.8 18.9,57.8 18.9,59.1 21.8,59.1 
		21.8,59.9 18.1,59.9 	"/>
	<path class="st0" d="M22.6,54.9h2.2c0.5,0,1,0.2,1.4,0.5c0.3,0.3,0.4,0.7,0.4,1.1l0,0c0,0.7-0.5,1.4-1.2,1.5l1.3,1.9h-1l-1.2-1.7
		h-1.1v1.8h-0.9L22.6,54.9z M24.8,57.4c0.6,0,1-0.3,1-0.8l0,0c0-0.5-0.4-0.8-1-0.8h-1.3v1.7L24.8,57.4z"/>
	<polygon class="st0" points="27.4,54.9 28.2,54.9 30.9,58.4 30.9,54.9 31.7,54.9 31.7,59.9 31,59.9 28.3,56.3 28.3,59.9 27.4,59.9 
			"/>
	<polygon class="st0" points="32.6,54.9 33.5,54.9 35,57.3 36.5,54.9 37.5,54.9 37.5,59.9 36.6,59.9 36.6,56.3 35,58.7 35,58.7 
		33.5,56.3 33.5,59.9 32.6,59.9 	"/>
	<polygon class="st0" points="38.3,54.9 42,54.9 42,55.7 39.2,55.7 39.2,57 41.6,57 41.6,57.8 39.2,57.8 39.2,59.1 42,59.1 42,59.9 
		38.3,59.9 	"/>
	<polygon class="st0" points="42.8,54.9 43.7,54.9 46.3,58.4 46.3,54.9 47.2,54.9 47.2,59.9 46.4,59.9 43.7,56.3 43.7,59.9 
		42.8,59.9 	"/>
	<polygon class="st0" points="49.4,55.7 47.8,55.7 47.8,54.9 51.9,54.9 51.9,55.7 50.3,55.7 50.3,59.9 49.4,59.9 	"/>
	<path class="st0" d="M19.7,50.2l2.1-2.6c1.3,1.3,3,2,4.8,2c1.5,0,2.3-0.6,2.3-1.6v-0.1c0-0.9-0.6-1.4-3.3-2c-3.3-0.8-5.4-1.8-5.4-5
		v-0.2c0-3,2.4-5,5.7-5c2.2,0,4.3,0.7,6,2.1l-1.8,2.7c-1.2-1-2.7-1.5-4.2-1.6c-1.4,0-2.1,0.6-2.1,1.4v0.1c0,1.1,0.7,1.4,3.5,2.2
		c3.3,0.9,5.1,2,5.1,4.9l0,0c0,3.3-2.5,5.1-6,5.1C24,52.8,21.6,51.9,19.7,50.2z"/>
	<path class="st1" d="M56,24.9c-0.1-0.6-0.4-1.2-0.9-1.5c-1.5-1.1-3.1-2.2-4.7-3.1c0.2-0.3,0.3-0.4,0.5-0.7c1.1-1.4,1.9-3,2.4-4.7
		c0.2-0.6,0.2-1.2,0.1-1.9c-0.2-0.6-0.7-1-1.3-1.1c-2-0.2-4-0.2-5.9,0c0-1.9-0.1-3.8-0.5-5.7c-0.1-0.5-0.3-1.3-0.9-1.5
		c-1-0.2-2-0.1-2.8,0.5c-1.1,0.5-2,0.9-3.2,1.6c-0.6-2-1.1-3.9-1.3-4.3c-0.2-0.5-0.4-1-1-1.1c-0.5-0.1-1,0-1.4,0.3
		c-0.6,0.4-3.1,2.2-3.9,2.9c-0.6-0.9-0.9-1.6-1.5-2.4c-0.3-0.6-0.7-1.1-1.1-1.7c-0.3-0.4-1-0.5-1.4-0.2c-0.1,0-0.1,0.1-0.2,0.2
		c-0.4,0.5-0.8,1.1-1.1,1.7c-0.5,0.9-0.9,1.5-1.4,2.5c-0.8-0.7-3.3-2.5-3.9-2.9c-0.4-0.3-0.9-0.4-1.4-0.3c-0.7,0.1-0.9,0.8-1,1.1
		S17.6,4.8,17,6.8c-1.2-0.6-2-1-3.2-1.6C13,4.6,12,4.4,11,4.6c-0.5,0.2-0.7,1-0.9,1.5C9.8,8,9.6,9.9,9.7,11.8c-2-0.2-4-0.2-5.9,0
		c-0.6,0.2-1,0.6-1.2,1.1c-0.1,0.6-0.1,1.3,0.1,1.9C3.2,16.5,4,18.1,5,19.5c0.2,0.3,0.3,0.5,0.5,0.7c-1.6,0.9-3.2,1.9-4.7,3.1
		c-0.5,0.4-0.8,0.9-0.9,1.5c0,0.4,0.1,0.7,0.3,1c0.5,0.8,3.6,3.7,10.3,4.8c-0.8,0.5-1.1,1.5-0.8,2.3c0.2,0.5,0.7,0.9,1.2,1.1
		c1.1,0.5,2.3,0.8,3.5,0.8c1.6,0,3.3-0.2,4.8-0.6c1.5-0.5,3-0.8,4.6-1c0.9-0.1,1.8-0.1,2.7,0c0.3,0,0.7,0.1,1.4,0.1
		c0.7,0,1.1,0,1.4-0.1c0.9-0.1,1.8-0.1,2.7,0c1.5,0.2,3.1,0.6,4.6,1c1.6,0.4,3.2,0.6,4.8,0.6c1.2,0,2.4-0.2,3.5-0.7
		c0.5-0.2,0.9-0.6,1.1-1.1c0.4-0.9,0-1.9-0.8-2.4c6.7-1,9.8-4,10.3-4.8C55.9,25.6,56,25.2,56,24.9z"/>
	<path class="st2" d="M38.3,10.2c0.5,2.7,0.8,5.5,0.8,8.3c0,2.5-0.3,5.1-1,7.5c-0.6,1.8-1.7,3.5-3.2,4.6c2.9-0.1,5.5-1.9,7.3-5.2
		c2.4-4.2,2.9-9.6,3-13.5c0.1-4.4-0.2-5.5-0.4-5.9c-0.1-0.4-0.3-0.6-0.7-0.6c-0.7,0-3.8,1.4-6.7,3.5C37.9,9.3,38.2,9.7,38.3,10.2z"
		/>
	<path class="st2" d="M30.4,31.2c3.1-0.3,5.7-2.5,6.6-5.5c0.7-2.3,1-4.7,1-7.1c0-2.6-0.2-5.2-0.7-7.7c0-0.3-0.2-0.7-0.5-0.8
		s-0.6,0.3-0.9,0.5s-5.3,4.7-7.4,10.2c-0.8,1.8-1.2,3.8-1.2,5.9c-0.1,1.2,0.1,2.4,0.7,3.5C28.6,30.8,29.5,31.2,30.4,31.2z"/>
	<path class="st2" d="M38,7.2c-0.6-2.6-1.1-4.4-1.1-4.5c-0.1-0.3-0.3-0.6-0.5-0.6c-0.3,0-0.5,0-0.7,0.2c-0.4,0.3-2.9,2.3-3.7,3
		c0.8,1.6,1.5,3.4,2.1,5.1C35.3,9.2,36.7,8.2,38,7.2z"/>
	<path class="st2" d="M52.6,13.8c0-0.3,0-0.6-0.1-0.8c-0.2-0.2-0.4-0.3-0.9-0.4c-1.8,0-3.5,0.1-5.3,0.3c0,1.7-0.2,3.5-0.4,5.2
		c1.2,0.5,2.5,1,3.6,1.6C52,16.5,52.5,14.4,52.6,13.8z"/>
	<path class="st2" d="M54.9,24.9c0-0.4-0.2-0.8-0.9-1.2c-2.6-1.8-5.4-3.3-8.3-4.5c-0.4,2.4-1.2,4.7-2.4,6.8c-1,1.8-2.4,3.4-4.1,4.5
		c4.9-0.3,9-1.1,11.9-2.6C54.4,26.3,54.9,25.5,54.9,24.9z"/>
	<path class="st2" d="M44.1,31.3c-0.9,0.1-1.9,0.2-2.8,0.4c-1,0.2-1.9,0.2-2.9,0.2h-1.9c-0.6,0-1.3,0-2,0l0,0c-1.7,0-3.4,0.1-5,0.5
		c-0.1,0-0.2,0-0.2,0.2c0,0.2,0.1,0.1,0.3,0.1s1.3-0.1,1.9-0.1c1.7,0,3.4,0.3,5,0.7c1.4,0.4,2.9,0.7,4.4,0.7c1.8,0,3.5-0.2,4-0.9
		c0.3-0.3,0.4-0.7,0.3-1C45.2,31.5,44.8,31.3,44.1,31.3z"/>
	<path class="st2" d="M13.7,25.4c1.8,3.2,4.4,5.1,7.3,5.2c-1.5-1.2-2.6-2.8-3.2-4.6c-0.7-2.4-1-5-1-7.5c0-2.8,0.3-5.5,0.8-8.3
		c0.1-0.5,0.4-1,0.8-1.2c-2.9-2.2-6-3.5-6.7-3.5c-0.4,0-0.6,0.2-0.7,0.6C11,6.5,10.6,7.6,10.7,12C10.8,15.8,11.3,21.2,13.7,25.4z"/>
	<path class="st2" d="M20,10.5c-0.2-0.2-0.5-0.5-0.8-0.5s-0.5,0.5-0.5,0.8c-0.5,2.5-0.7,5.1-0.7,7.7c0,2.4,0.3,4.8,0.9,7.1
		c0.9,3.1,3.6,5.2,6.7,5.5c0.4,0,0.8-0.1,1.2-0.2c0.2-0.1,0.4-0.2,0.5-0.3c-0.2-0.2-0.3-0.5-0.4-0.7c-0.4-1-0.6-2.1-0.6-3.2
		c0-2.2,0.4-4.3,1.2-6.3C25.3,15,20.2,10.6,20,10.5z"/>
	<path class="st2" d="M28,18.8c1.3-2.7,3.1-5.1,5.2-7.2C32,8,30.4,4.5,28.4,1.2C28.3,1,28.2,0.9,28,0.9c-0.2,0-0.3,0.1-0.4,0.3
		c-2,3.2-3.6,6.7-4.8,10.4C24.9,13.7,26.7,16.2,28,18.8z"/>
	<path class="st2" d="M24,5.3c-0.8-0.7-3.3-2.7-3.7-3c-0.2-0.2-0.5-0.3-0.7-0.2c-0.3,0-0.4,0.3-0.5,0.6c0,0-0.5,1.8-1.1,4.5
		c1.4,1,2.7,2.1,4,3.3C22.5,8.7,23.2,7,24,5.3z"/>
	<path class="st2" d="M6.5,19.6c1.2-0.6,2.4-1.1,3.7-1.6c-0.3-1.7-0.4-3.4-0.5-5.2c-1.7-0.2-3.5-0.3-5.3-0.3
		c-0.5,0.1-0.7,0.2-0.9,0.4c-0.1,0.3-0.2,0.5-0.1,0.8C3.5,14.4,4,16.5,6.5,19.6z"/>
	<path class="st2" d="M12.7,26c-1.1-2.1-1.9-4.4-2.4-6.8c-2.9,1.2-5.7,2.7-8.3,4.5c-0.7,0.5-0.9,0.8-0.9,1.2c0,0.4,0.4,1.4,3.8,3.1
		c2.9,1.4,7,2.2,11.9,2.6C15.1,29.4,13.7,27.8,12.7,26z"/>
	<path class="st2" d="M26.5,32.3c-1.6-0.4-3.3-0.6-5-0.5l0,0c-0.7,0-1.4,0-2,0h-1.9c-1,0-1.9,0-2.9-0.2c-0.9-0.2-1.8-0.3-2.8-0.4
		c-0.7,0-1.1,0.2-1.2,0.7c-0.1,0.4,0,0.7,0.3,1c0.6,0.7,2.2,0.9,4.1,0.9c1.5,0,2.9-0.2,4.4-0.7c1.6-0.5,3.3-0.7,5-0.7
		c0.6,0,1.8,0.1,1.9,0.1s0.3,0,0.3-0.1C26.6,32.4,26.6,32.4,26.5,32.3z"/>
</g>
</svg>
